<svg xmlns="http://www.w3.org/2000/svg" viewBox="0 0 512 512" width="512" height="512"><defs><linearGradient id="bg" x1="0" y1="0" x2="0" y2="1"><stop offset="0" stop-color="#0A1020"/><stop offset="1" stop-color="#04060E"/></linearGradient><linearGradient id="sg" gradientUnits="userSpaceOnUse" x1="0" y1="40" x2="0" y2="472"><stop offset="0.0" stop-color="#7DFFF0"/><stop offset="0.5" stop-color="#57B8FF"/><stop offset="1.0" stop-color="#A45CFF"/></linearGradient><linearGradient id="ft" gradientUnits="userSpaceOnUse" x1="0" y1="40" x2="0" y2="472"><stop offset="0" stop-color="#153A66"/><stop offset="1" stop-color="#0B1E3A"/></linearGradient><linearGradient id="fs" gradientUnits="userSpaceOnUse" x1="0" y1="40" x2="0" y2="472"><stop offset="0" stop-color="#0D2646"/><stop offset="1" stop-color="#06121F"/></linearGradient><filter id="gl" x="-30%" y="-30%" width="160%" height="160%"><feGaussianBlur stdDeviation="6" result="b"/><feMerge><feMergeNode in="b"/><feMergeNode in="b"/><feMergeNode in="SourceGraphic"/></feMerge></filter></defs><rect x="0" y="0" width="512" height="512" rx="112" fill="url(#bg)"/><g stroke="url(#sg)" stroke-width="4.2" stroke-linejoin="round" stroke-linecap="round" filter="url(#gl)"><path d="M 102.34,302.11 L 318.62,361.45 L 385.21,321.29 L 168.94,261.95 Z" fill="url(#ft)" fill-opacity="0.85"/><path d="M 102.34,391.22 L 318.62,450.56 L 318.62,361.45 L 102.34,302.11 Z" fill="url(#fs)" fill-opacity="0.85"/><path d="M 318.62,450.56 L 385.21,410.40 L 385.21,321.29 L 318.62,361.45 Z" fill="url(#fs)" fill-opacity="0.85"/><path d="M 126.79,207.27 L 343.06,266.61 L 409.66,226.45 L 193.38,167.11 Z" fill="url(#ft)" fill-opacity="0.85"/><path d="M 126.79,296.39 L 343.06,355.72 L 343.06,266.61 L 126.79,207.27 Z" fill="url(#fs)" fill-opacity="0.85"/><path d="M 111.74,101.60 L 328.02,160.93 L 394.62,120.78 L 178.34,61.44 Z" fill="url(#ft)" fill-opacity="0.85"/><path d="M 343.06,355.72 L 409.66,315.56 L 409.66,226.45 L 343.06,266.61 Z" fill="url(#fs)" fill-opacity="0.85"/><path d="M 111.74,190.71 L 328.02,250.05 L 328.02,160.93 L 111.74,101.60 Z" fill="url(#fs)" fill-opacity="0.85"/><path d="M 328.02,250.05 L 394.62,209.89 L 394.62,120.78 L 328.02,160.93 Z" fill="url(#fs)" fill-opacity="0.85"/><path d="M 156.41,406.06 L 156.41,316.95" fill="none" stroke-width="2.10" opacity="0.75"/><path d="M 210.48,420.89 L 210.48,331.78" fill="none" stroke-width="2.10" opacity="0.75"/><path d="M 264.55,435.73 L 264.55,346.61" fill="none" stroke-width="2.10" opacity="0.75"/><path d="M 180.86,311.22 L 180.86,222.11" fill="none" stroke-width="2.10" opacity="0.75"/><path d="M 234.93,326.05 L 234.93,236.94" fill="none" stroke-width="2.10" opacity="0.75"/><path d="M 288.99,340.89 L 288.99,251.77" fill="none" stroke-width="2.10" opacity="0.75"/><path d="M 165.81,205.55 L 165.81,116.43" fill="none" stroke-width="2.10" opacity="0.75"/><path d="M 219.88,220.38 L 219.88,131.27" fill="none" stroke-width="2.10" opacity="0.75"/><path d="M 273.95,235.21 L 273.95,146.10" fill="none" stroke-width="2.10" opacity="0.75"/></g></svg>